<?xml version="1.0" encoding="UTF-8"?>
<svg width="512" height="512" version="1.1" viewBox="0 0 512 512" xmlns="http://www.w3.org/2000/svg">
 <!-- Font Awesome Free 5.15.2 by @fontawesome - https://fontawesome.com License - https://fontawesome.com/license/free (Icons: CC BY 4.0, Fonts: SIL OFL 1.1, Code: MIT License) -->
 <path d="m343.01 275.08c53.338 0 96.567-44.884 96.567-100.26 0-55.381-43.229-100.26-96.567-100.26-53.338 0-96.567 44.884-96.567 100.26 0 55.381 43.229 100.26 96.567 100.26zm67.597 25.066h-12.599c-16.748 7.9899-35.383 12.533-54.998 12.533-19.615 0-38.174-4.5433-54.998-12.533h-12.599c-55.978 0-101.4 47.156-101.4 105.28v32.586c0 20.758 16.22 37.599 36.213 37.599h265.56c19.992 0 36.213-16.841 36.213-37.599v-32.586c0-58.122-45.417-105.28-101.4-105.28z" stroke-width=".76874"/>
 <path d="m124.14 328.3c39.181 0 70.936-32.971 70.936-73.653 0-40.682-31.755-73.653-70.936-73.653-39.181 0-70.936 32.971-70.936 73.653 0 40.682 31.755 73.653 70.936 73.653zm38.654 21.798h-6.7162c-12.303 5.8692-17.529 5.8215-31.938 5.8215-14.409 0-28.042-3.3374-40.401-9.2066h-9.255c-41.121 0-74.483 34.64-74.483 77.336v23.937c0 15.248 11.915 27.62 26.601 27.62h141.76c7.0695-8.4628-7.6827 2.8623-8.9426-42.853l-0.84628-30.708c-1.1762-42.68 26.724-51.947 4.2208-51.947z" stroke-width=".5647"/>
</svg>
