<svg width="11" height="9" viewBox="0 0 11 9" fill="none" xmlns="http://www.w3.org/2000/svg">
<g clip-path="url(#clip0_340_2207)">
<path d="M11 8.99996V5.72722H5.13336V3.2727H11V1.63636H10.2667V0.818182H9.53336V0H4.40002V0.818182H3.66669V1.63636H2.93336V2.45455H0V3.2727H2.2V4.09091H1.46667V4.90909H0.733333V5.72725L0 5.72722V6.54545H0.733333H1.46667V5.72727L2.2 5.72722V4.90909H2.93336L2.93333 4.09091H3.66669V5.72722V8.18177H4.40002V8.99996H11Z" fill="#F8AA48"/>
<path d="M10.2667 3.27274H5.13333V5.72728H10.2667V3.27274Z" fill="#FCEAD2"/>
<path d="M8.06668 4.09091H7.33334V4.90909H8.06668V4.09091Z" fill="black"/>
<path d="M9.53332 4.09091H8.79999V4.90909H9.53332V4.09091Z" fill="black"/>
<path d="M8.06668 3.27274V4.09092H8.80001V3.27274H8.06668Z" fill="black"/>
</g>
<defs>
<clipPath id="clip0_340_2207">
<rect width="11" height="9" fill="white"/>
</clipPath>
</defs>
</svg>
